# xmcd
#
# Track frame offsets:
#	150
#	13830
#	31535
#	42137
#	56212
#	72135
#	89542
#	108925
#	126292
#	145400
#	162150
#	176615
#	191142
#	207565
#
# Disc length: 2919 seconds
#
# Revision: 0
# Processed by: cddbd v1.5.1PL2 Copyright (c) Steve Scherf et al.
# Submitted via: EasyCDDAExtractor 9.0.0.1
#
DISCID=c80b650e
DTITLE=Cisco Herzhaft - Ghost Cities
DYEAR=2003
DGENRE=Blues
TTITLE0=A1 Motorway Blues
TTITLE1=Moon Without you
TTITLE2=Debo'rag
TTITLE3=Mon "Road Movie"
TTITLE4=PariSpleen
TTITLE5=An am boogie With a G
TTITLE6=Ghost Cities
TTITLE7=Bouge-z-y boogie
TTITLE8=Someday baby
TTITLE9=Can I do It For you
TTITLE10=Boom Boom
TTITLE11=Baille Baille
TTITLE12=Canned Heat Memories
TTITLE13=New Marseille rag
EXTD=
EXTT0=
EXTT1=
EXTT2=
EXTT3=
EXTT4=
EXTT5=
EXTT6=
EXTT7=
EXTT8=
EXTT9=
EXTT10=
EXTT11=
EXTT12=
EXTT13=
PLAYORDER=
